<?xml version="1.0" standalone="no"?>
<!DOCTYPE svg PUBLIC "-//W3C//DTD SVG 1.1//EN" "http://www.w3.org/Graphics/SVG/1.1/DTD/svg11.dtd" >
<svg xmlns="http://www.w3.org/2000/svg">
<metadata>Generated by IcoMoon</metadata>
<defs>
<font id="fa-trendy" horiz-adv-x="1024">
<font-face units-per-em="1024" ascent="896" descent="-128" />
<missing-glyph horiz-adv-x="1024" />
<glyph unicode="&#x20;" horiz-adv-x="0" d="" />
<glyph unicode="&#xe027;" glyph-name="rocket-launch" d="M736.118 719.942c61.793-0.027 111.959-50.193 111.984-111.988 0-61.809-50.176-111.992-111.984-111.992-61.811 0-111.99 50.182-111.99 111.99s50.18 111.99 111.99 111.99zM736.118 559.958c26.475 0.029 47.965 21.52 47.992 47.996 0 26.49-21.504 47.996-47.992 47.996-26.49 0-47.996-21.506-47.996-47.996s21.506-47.996 47.996-47.996zM1010.332 857.41c13.816-64.203 13.816-114.5 13.633-164.797 0-205.356-110.828-329.536-255.96-422.148v-208.86c0-32.555-23.82-71.109-52.934-85.68l-197.434-98.801c-6.545-2.959-13.826-4.75-21.402-5.031-26.486 0.008-47.988 21.51-47.992 47.996v207.98c0 105.953-86.020 191.979-191.973 191.98h-207.844c-26.484 0.010-47.984 21.512-47.992 47.996 0.273 7.58 2.064 14.863 5.031 21.406l98.812 197.578c14.578 29.148 53.168 52.992 85.754 52.992h208.344c92.391 145.582 216.152 255.976 422.528 255.976 50.074 0 100.363 0 164.535-13.723 10.926-2.336 22.543-13.941 24.895-24.867zM74.309 384.046c47.727 0 187.867-0.801 190.906-0.906l-0.133 0.906c31.684 63.992 67.238 135.863 95.109 191.984h-170.16c-8.289 0-24.816-10.211-28.52-17.621zM704.012 61.605v170.574l-0.25 0.004c-56.113-27.902-127.727-63.43-191.719-95.082l-0.734 0.094c0.113-3.098 0.922-143.414 0.922-191.219l174.203 87.18c7.395 3.699 17.578 20.188 17.578 28.449zM499.856 202.632c206.16 103.059 460.118 200.040 460.118 489.98 0.152 42.25 0.301 82.266-8.23 131.020-48.246 8.375-88.512 8.375-130.84 8.375-290.778 0-386.262-252.292-490.316-460.266 80.744-24.723 144.473-88.396 169.27-169.109zM204.868 256.058c49.578 0 96.852-20.828 126.734-50.859 102.176-102.688 75.633-326.058-267.602-332.734v-0.465h-64v64h0.336c3.727 241.364 108.371 320.058 204.532 320.058zM310.696 37.262c18.602 45.133 1.414 96.852-24.207 122.598-19.391 19.488-51.43 32.078-81.621 32.078-143.145 0-140.777-248.668-140.906-255.778 131.461 2.242 221.062 38.805 246.734 101.102z" />
<glyph unicode="&#xf002;" glyph-name="search" d="M1017-67.199c9.4-9.4 9.4-24.602 0-34l-19.801-19.801c-9.398-9.4-24.6-9.4-34 0l-258 258c-4.398 4.6-7 10.6-7 17v20.4c-74.199-68.4-173.199-110.4-282.2-110.4-229.8 0-416 186.199-416 416s186.199 416 416 416 416-186.199 416-416c0-109-42-208-110.6-282.2h20.6c6.4 0 12.4-2.4 17-7zM416 128c194.6 0 352 157.4 352 352s-157.4 352-352 352-352-157.4-352-352 157.4-352 352-352z" />
<glyph unicode="&#xf00d;" glyph-name="times" horiz-adv-x="640" d="M387.88 384l247.42-247.42c6.238-6.24 6.238-16.381 0-22.619l-45.262-45.262c-6.238-6.238-16.379-6.238-22.619 0l-247.421 247.421-247.44-247.42c-6.24-6.238-16.381-6.238-22.621 0l-45.26 45.262c-6.24 6.238-6.24 16.379 0 22.619l247.44 247.42-247.44 247.44c-6.24 6.24-6.24 16.381 0 22.621l45.281 45.26c6.238 6.24 16.379 6.24 22.619 0l247.42-247.44 247.42 247.42c6.24 6.238 16.381 6.238 22.619 0l45.262-45.262c6.238-6.238 6.238-16.379 0-22.619l-42.301-42.301z" />
<glyph unicode="&#xf04b;" glyph-name="play" horiz-adv-x="896" d="M848.8 466.6c63-37 62.799-128.199 0-165.199l-704-416c-63.4-37.6-144.801 7.6-144.801 82.6v832.2c0 83.602 87.6 116.4 144.801 82.602zM816.4 356.4c20.799 12.4 20.799 42.799-0.201 55.199l-704 416.202c-15.398 9.199-48.199 5-48.199-27.602v-832.2c0-25.199 27.199-39.801 48.4-27.6z" />
<glyph unicode="&#xf04c;" glyph-name="pause" horiz-adv-x="896" d="M96-62c-53 0-96 43-96 96v704c0 53 43 96 96 96h192c53 0 96-43 96-96v-704c0-53-43-96-96-96h-192zM64 738v-704c0-17.6 14.4-32 32-32h192c17.6 0 32 14.4 32 32v704c0 17.6-14.4 32-32 32h-192c-17.6 0-32-14.4-32-32zM608-62c-53 0-96 43-96 96v704c0 53 43 96 96 96h192c53 0 96-43 96-96v-704c0-53-43-96-96-96h-192zM576 738v-704c0-17.6 14.4-32 32-32h192c17.6 0 32 14.4 32 32v704c0 17.6-14.4 32-32 32h-192c-17.6 0-32-14.4-32-32z" />
<glyph unicode="&#xf04d;" glyph-name="play1" horiz-adv-x="896" d="M848.8 466.6c63-37 62.799-128.199 0-165.199l-704-416c-63.4-37.6-144.801 7.6-144.801 82.6v832.2c0 83.602 87.6 116.4 144.801 82.602z" />
<glyph unicode="&#xf04e;" glyph-name="pause1" horiz-adv-x="896" d="M288-62h-192c-53 0-96 43-96 96v704c0 53 43 96 96 96h192c53 0 96-43 96-96v-704c0-53-43-96-96-96zM896 34c0-53-43-96-96-96h-192c-53 0-96 43-96 96v704c0 53 43 96 96 96h192c53 0 96-43 96-96v-704z" />
<glyph unicode="&#xf054;" glyph-name="chevron-right" horiz-adv-x="512" d="M35.051 823.070c9.371 9.373 24.566 9.373 33.939 0l422.102-422.098c9.373-9.375 9.373-24.57 0-33.943l-422.102-422.1c-9.373-9.371-24.568-9.371-33.939 0l-14.143 14.141c-9.373 9.373-9.373 24.57 0 33.941l390.986 390.988-390.986 390.988c-9.373 9.373-9.373 24.57 0 33.941z" />
<glyph unicode="&#xf060;" glyph-name="arrow-left" horiz-adv-x="896" d="M463.072-55.070c-9.373-9.373-24.568-9.373-33.939-0.002l-422.104 422.1c-9.371 9.375-9.371 24.57 0 33.943l422.104 422.1c9.371 9.371 24.566 9.371 33.939 0l14.143-14.141c9.371-9.373 9.371-24.57 0-33.941l-356.988-356.988h751.774c13.254 0 24-10.746 24-24v-20c0-13.254-10.746-24-24-24h-751.774l356.988-356.988c9.371-9.373 9.371-24.57 0-33.941z" />
<glyph unicode="&#xf061;" glyph-name="arrow-right" horiz-adv-x="896" d="M432.928 823.070c9.373 9.373 24.568 9.373 33.939 0l422.104-422.098c9.371-9.375 9.371-24.57 0-33.943l-422.104-422.1c-9.371-9.371-24.566-9.371-33.939 0l-14.143 14.141c-9.371 9.373-9.371 24.57 0 33.941l356.988 356.988h-751.774c-13.254 0-24 10.746-24 24v20c0 13.254 10.746 24 24 24h751.774l-356.988 356.988c-9.371 9.373-9.371 24.57 0 33.941z" />
<glyph unicode="&#xf095;" glyph-name="phone" d="M975.6 847.8c28.4-6.4 48.4-31.602 48.4-60.801 0-506.6-410.6-915-915-915-29.199 0-54.4 20-61 48.6l-46.4 201.4c-6.799 29.4 8.4 59.4 36.201 71.4l216.798 93c25.4 11 55.4 3.6 73-17.801l88.201-107.799c138.6 68 251.2 180.799 319.2 319.2l-107.801 88.199c-21.398 17.602-28.799 47.602-17.799 73l93 217c12 27.801 42.199 43 71.6 36.201zM110.199-64c469 0.6 849.202 380.6 849.602 849.6l-199.201 46-92-214.798 145.6-119c-96.799-206.4-209-319-416.2-416.202l-119 145.6-214.8-92z" />
<glyph unicode="&#xf099;" glyph-name="twitter" d="M918.74 592.568c0.65-9.096 0.65-18.195 0.65-27.291 0-277.44-211.166-597.116-597.118-597.116-118.904 0-229.36 34.438-322.274 94.211 16.895-1.947 33.137-2.598 50.68-2.598 98.109 0 188.426 33.137 260.548 89.664-92.264 1.951-169.584 62.377-196.225 145.545 12.996-1.949 25.99-3.248 39.637-3.248 18.842 0 37.686 2.6 55.227 7.146-96.162 19.494-168.285 103.959-168.285 205.968v2.598c27.938-15.594 60.428-25.34 94.861-26.637-56.527 37.686-93.561 102.010-93.561 174.781 0 38.984 10.393 74.721 28.588 105.908 103.309-127.35 258.6-210.516 432.728-219.614-3.248 15.594-5.197 31.836-5.197 48.080 0 115.654 93.564 209.868 209.868 209.868 60.428 0 115.004-25.34 153.342-66.273 47.43 9.096 92.91 26.639 133.197 50.68-15.596-48.732-48.732-89.666-92.264-115.654 42.234 4.547 83.168 16.244 120.852 32.486-28.584-41.582-64.322-78.617-105.256-108.506z" />
<glyph unicode="&#xf09e;" glyph-name="rss" horiz-adv-x="896" d="M160 192c-52.934 0-96-43.066-96-96s43.066-96 96-96 96 43.066 96 96-43.066 96-96 96zM160 256c88.365 0 160-71.635 160-160s-71.635-160-160-160-160 71.635-160 160 71.635 160 160 160zM895.992-39.23c0.365-13.551-10.447-24.77-24.004-24.77h-16.014c-12.965 0-23.633 10.293-23.988 23.252-12.096 440.908-367.116 796.634-808.734 808.734-12.959 0.355-23.252 11.023-23.252 23.988v16.012c0 13.557 11.219 24.371 24.771 24.004 475.1-12.893 858.324-395.524 871.22-871.22zM607.502-39.131c0.547-13.584-10.4-24.869-23.996-24.869h-16.010c-12.916 0-23.439 10.229-23.979 23.135-11.781 282.224-238.116 508.602-520.382 520.382-12.906 0.539-23.135 11.061-23.135 23.979v16.010c0 13.594 11.285 24.543 24.869 23.996 316.218-12.691 569.94-266.368 582.632-582.632z" />
<glyph unicode="&#xf0da;" glyph-name="caret-right" horiz-adv-x="384" d="M0 126.676v514.648c0 35.637 43.086 53.482 68.283 28.283l257.324-257.324c15.621-15.619 15.621-40.947 0-56.566l-257.324-257.324c-25.197-25.201-68.283-7.354-68.283 28.283z" />
<glyph unicode="&#xf0e0;" glyph-name="envelope" d="M928 768c53 0 96-43 96-96v-576c0-53-43-96-96-96h-832c-53 0-96 43-96 96v576c0 53 43 96 96 96h832zM96 704c-17.6 0-32-14.4-32-32v-82.801c43.801-37 106.4-88 301.2-242.6 33.602-26.799 100.4-91.4 146.801-90.6 46.4-0.801 113 63.801 146.801 90.6 194.799 154.6 257.398 205.6 301.2 242.6v82.801c0 17.6-14.4 32-32 32h-832zM928 64c17.6 0 32 14.4 32 32v410c-45.6-37.4-117.6-95.199-261.4-209.4-42-33.6-113.799-105.199-186.6-104.6-73.199-0.4-145.6 71.801-186.6 104.6-143.801 114.201-215.8 172-261.4 209.4v-410c0-17.6 14.4-32 32-32h832z" />
<glyph unicode="&#xf0e1;" glyph-name="linkedin-in" d="M200.56 0h-185.76v598.2h185.76v-598.2zM107.58 679.8c-59.4 0-107.58 49.199-107.58 108.6 0 59.375 48.205 107.58 107.58 107.58s107.58-48.205 107.58-107.58c0-59.4-48.199-108.6-107.58-108.6zM895.8 0h-185.361v291.2c0 69.4-1.4 158.4-96.58 158.4-96.58 0-111.379-75.4-111.379-153.4v-296.2h-185.561v598.2h178.16v-81.6h2.6c24.801 47 85.381 96.6 175.76 96.6 188 0 222.56-123.799 222.56-284.6v-328.6h-0.199z" />
<glyph unicode="&#xf0ed;" glyph-name="cloud-download" horiz-adv-x="1280" d="M1143.4 418.4c85-44.801 136.6-132.4 136.6-226.4 0-141.6-114.6-256-256-256h-736c-159.199 0-288 128.801-288 288 0 123.4 78.4 231.6 192.4 271.6 8.199 187.4 162.799 336.4 351.6 336.4 119.4 0 224.8-59.6 288-149.6 30.199 14.4 62.6 21.6 96 21.6 123.801 0 224-100.199 224-224 0-21.199-3-41.801-8.6-61.6zM1024 0c106 0 192 86 192 192 0 95.801-70 175.199-161.801 189.6 21.201 27.201 33.801 61.4 33.801 98.4 0 88.4-71.6 160-160 160-46.4 0-88-19.801-117.199-51.199-43 105.199-146.201 179.199-266.8 179.199-159 0-288-129-288-288 0-11.4 0.6-22.801 2-34-109.6-14.6-194-108.4-194-222 0-123.801 100.199-224 224-224h736zM810.4 387l11-11.4c9.4-9.4 9.4-24.6 0-34l-196.6-196.6c-9.4-9.4-24.602-9.4-34 0l-196.602 196.6c-9.398 9.4-9.398 24.6 0 34l11.4 11.4c9.4 9.4 24.6 9.4 34 0l136.4-136.4v301.4c0 13.199 10.801 24 24 24h16c13.199 0 24-10.801 24-24v-301.4l136.4 136.4c9.4 9.4 24.6 9.4 34 0z" />
<glyph unicode="&#xf138;" glyph-name="chevron-circle-right" d="M16 384c0 274 222 496 496 496s496-222 496-496-222-496-496-496-496 222-496 496zM512 816c-239.8 0-432-194.6-432-432 0-239.8 194.6-432 432-432 239.8 0 432 194.6 432 432 0 239.8-194.6 432-432 432zM685.2 367l-230.2-230c-9.4-9.4-24.6-9.4-34 0l-14.199 14.199c-9.4 9.4-9.4 24.602 0 34l199.199 198.801-199 199c-9.4 9.4-9.4 24.6 0 34l14.199 14.199c9.4 9.4 24.602 9.4 34 0l230.202-230c9.199-9.6 9.199-24.799-0.201-34.199z" />
<glyph unicode="&#xf167;" glyph-name="youtube" horiz-adv-x="1152" d="M1099.31 647.834c22.824-85.734 22.824-264.61 22.824-264.61s0-178.877-22.824-264.612c-12.563-47.299-49.574-83-96.568-95.641-85.182-22.973-426.742-22.973-426.742-22.973s-341.56 0-426.742 22.973c-46.994 12.641-84.006 48.342-96.568 95.641-22.824 85.734-22.824 264.612-22.824 264.612s0 178.875 22.824 264.61c12.563 47.301 49.574 84.551 96.568 97.193 85.182 22.973 426.742 22.973 426.742 22.973s341.562 0 426.742-22.973c46.994-12.641 84.006-49.893 96.568-97.193zM464.29 220.818l285.478 162.402-285.478 162.41v-324.812z" />
<glyph unicode="&#xf178;" glyph-name="long-arrow-right" horiz-adv-x="896" d="M622.060 632.97c9.371 9.373 24.568 9.373 33.939 0l232.97-231.998c9.371-9.375 9.371-24.57 0-33.943l-232.97-232c-9.371-9.371-24.568-9.371-33.939 0l-14.143 14.141c-9.371 9.375-9.371 24.57 0 33.941l167.855 166.889h-751.774c-13.254 0-24 10.746-24 24v20c0 13.254 10.746 24 24 24h751.774l-167.855 166.889c-9.371 9.373-9.371 24.568 0 33.941z" />
<glyph unicode="&#xf1ac;" glyph-name="fax" d="M784 288c-8.83 0-16 7.17-16 16v32c0 8.83 7.17 16 16 16h32c8.83 0 16-7.17 16-16v-32c0-8.83-7.17-16-16-16h-32zM784 32c-8.83 0-16 7.17-16 16v32c0 8.83 7.17 16 16 16h32c8.83 0 16-7.17 16-16v-32c0-8.83-7.17-16-16-16h-32zM160 640c52.984 0 96-43.016 96-96v-576c0-52.984-43.016-96-96-96h-64c-52.984 0-96 43.016-96 96v576c0 52.984 43.016 96 96 96h64zM192-32v576c0 17.662-14.338 32-32 32h-64c-17.662 0-32-14.338-32-32v-576c0-17.662 14.338-32 32-32h64c17.662 0 32 14.338 32 32zM784 160c-8.83 0-16 7.17-16 16v32c0 8.83 7.17 16 16 16h32c8.83 0 16-7.17 16-16v-32c0-8.83-7.17-16-16-16h-32zM528 32c-8.83 0-16 7.17-16 16v32c0 8.83 7.17 16 16 16h32c8.83 0 16-7.17 16-16v-32c0-8.83-7.17-16-16-16h-32zM528 160c-8.83 0-16 7.17-16 16v32c0 8.83 7.17 16 16 16h32c8.83 0 16-7.17 16-16v-32c0-8.83-7.17-16-16-16h-32zM960 570.12c37.213-13.076 63.91-48.482 64-90.119v-512c0-52.984-43.016-96-96-96h-512c-52.984 0-96 43.016-96 96v832c0 52.984 43.016 96 96 96h325.5c17.664-0.002 33.676-7.168 45.26-18.76l154.48-154.48c11.592-11.584 18.758-27.596 18.76-45.26v-107.381zM768 805.5v-101.5h101.5zM384 800v-288h512v128h-128c-35.322 0-64 28.678-64 64v128h-288c-17.662 0-32-14.338-32-32zM960-32v480h-576v-480c0-17.662 14.338-32 32-32h512c17.662 0 32 14.338 32 32zM656 32c-8.83 0-16 7.17-16 16v32c0 8.83 7.17 16 16 16h32c8.83 0 16-7.17 16-16v-32c0-8.83-7.17-16-16-16h-32zM656 160c-8.83 0-16 7.17-16 16v32c0 8.83 7.17 16 16 16h32c8.83 0 16-7.17 16-16v-32c0-8.83-7.17-16-16-16h-32zM656 288c-8.83 0-16 7.17-16 16v32c0 8.83 7.17 16 16 16h32c8.83 0 16-7.17 16-16v-32c0-8.83-7.17-16-16-16h-32zM528 288c-8.83 0-16 7.17-16 16v32c0 8.83 7.17 16 16 16h32c8.83 0 16-7.17 16-16v-32c0-8.83-7.17-16-16-16h-32z" />
<glyph unicode="&#xf1e6;" glyph-name="plug" horiz-adv-x="768" d="M704 640c35.322 0 64-28.678 64-64v-64c0-35.322-28.678-64-64-64v-64c0-165.5-126.74-300.44-288-316.76v-195.24h-64v195.24c-161.26 16.32-288 151.26-288 316.76v64c-35.322 0-64 28.678-64 64v64c0 35.322 28.678 64 64 64h96v224c0 17.662 14.338 32 32 32s32-14.338 32-32v-224h320v224c0 17.662 14.338 32 32 32s32-14.338 32-32v-224h96zM640 384v64h-512v-64c0-141.291 114.709-256 256-256s256 114.709 256 256zM704 512v64h-640v-64h640z" />
<glyph unicode="&#xf1ea;" glyph-name="newspaper" horiz-adv-x="1152" d="M1104 768c26.467 0 48-21.533 48-48v-672c0-26.467-21.533-48-48-48h-1008c-53.020 0-96 42.98-96 96v560c0 26.51 21.49 48 48 48h80v16c0 26.467 21.531 48 48 48h928zM64 96c0-17.645 14.355-32 32-32s32 14.355 32 32v544h-64v-544zM1088 64v640h-896v-608c0-0.018-0.029-0.064-0.029-0.082 0-11.189-1.922-21.932-5.455-31.918h901.484zM280 256c-13.254 0-24 10.746-24 24v336c0 13.254 10.746 24 24 24h336c13.254 0 24-10.746 24-24v-336c0-13.254-10.746-24-24-24h-336zM320 576v-256h256v256h-256zM256 152v16c0 13.254 10.746 24 24 24h336c13.254 0 24-10.746 24-24v-16c0-13.254-10.746-24-24-24h-336c-13.254 0-24 10.746-24 24zM704 152v16c0 13.254 10.746 24 24 24h272c13.254 0 24-10.746 24-24v-16c0-13.254-10.746-24-24-24h-272c-13.254 0-24 10.746-24 24zM704 280v16c0 13.254 10.746 24 24 24h272c13.254 0 24-10.746 24-24v-16c0-13.254-10.746-24-24-24h-272c-13.254 0-24 10.746-24 24zM704 536v16c0 13.254 10.746 24 24 24h272c13.254 0 24-10.746 24-24v-16c0-13.254-10.746-24-24-24h-272c-13.254 0-24 10.746-24 24zM704 408v16c0 13.254 10.746 24 24 24h272c13.254 0 24-10.746 24-24v-16c0-13.254-10.746-24-24-24h-272c-13.254 0-24 10.746-24 24z" />
<glyph unicode="&#xf233;" glyph-name="server" d="M752 384c0 26.51 21.49 48 48 48s48-21.49 48-48-21.49-48-48-48-48 21.49-48 48zM672 336c-26.51 0-48 21.49-48 48s21.49 48 48 48 48-21.49 48-48-21.49-48-48-48zM1024 592c0-24.592-9.258-47.014-24.465-64 15.207-16.986 24.465-39.408 24.465-64v-160c0-24.592-9.258-47.014-24.465-64 15.207-16.986 24.465-39.408 24.465-64v-160c0-53.020-42.98-96-96-96h-832c-53.020 0-96 42.98-96 96v160c0 24.592 9.258 47.014 24.465 64-15.207 16.986-24.465 39.408-24.465 64v160c0 24.592 9.258 47.014 24.465 64-15.207 16.986-24.465 39.408-24.465 64v160c0 53.020 42.98 96 96 96h832c53.020 0 96-42.98 96-96v-160zM64 592c0-17.645 14.355-32 32-32h832c17.645 0 32 14.355 32 32v160c0 17.645-14.355 32-32 32h-832c-17.645 0-32-14.355-32-32v-160zM928 496h-832c-17.645 0-32-14.355-32-32v-160c0-17.645 14.355-32 32-32h832c17.645 0 32 14.355 32 32v160c0 17.645-14.355 32-32 32zM960 176c0 17.645-14.355 32-32 32h-832c-17.645 0-32-14.355-32-32v-160c0-17.645 14.355-32 32-32h832c17.645 0 32 14.355 32 32v160zM800 624c-26.51 0-48 21.49-48 48s21.49 48 48 48 48-21.49 48-48-21.49-48-48-48zM672 624c-26.51 0-48 21.49-48 48s21.49 48 48 48 48-21.49 48-48-21.49-48-48-48zM800 144c26.51 0 48-21.49 48-48s-21.49-48-48-48-48 21.49-48 48 21.49 48 48 48zM672 144c26.51 0 48-21.49 48-48s-21.49-48-48-48-48 21.49-48 48 21.49 48 48 48z" />
<glyph unicode="&#xf39e;" glyph-name="facebook-f" horiz-adv-x="640" d="M558.28 320h-149.379v-448h-200.34v448h-162.781v185.32h162.781v141.24c0 160.68 95.719 249.44 242.16 249.44 70.139 0 143.5-12.52 143.5-12.52v-157.781h-80.84c-79.641 0-104.48-49.42-104.48-100.119v-120.26h177.82z" />
<glyph unicode="&#xf3c5;" glyph-name="map-marker-alt" horiz-adv-x="768" d="M384 704c105.869 0 192-86.131 192-192s-86.131-192-192-192-192 86.131-192 192 86.131 192 192 192zM384 384c70.58 0 128 57.42 128 128s-57.42 128-128 128-128-57.42-128-128 57.42-128 128-128zM384 896c212.078 0 384-171.922 384-384 0-154.826-53.939-198.062-344.534-619.34-19.072-27.549-59.863-27.545-78.932 0-290.596 421.278-344.536 464.514-344.536 619.34 0 212.078 171.922 384 384 384zM384-51.861c278.616 402.922 320 434.88 320 563.862 0 85.477-33.285 165.834-93.727 226.274-60.439 60.441-140.797 93.727-226.274 93.727s-165.834-33.285-226.274-93.727c-60.441-60.439-93.727-140.797-93.727-226.274 0-128.988 41.41-160.977 320-563.862z" />
<glyph unicode="&#xf559;" glyph-name="award" horiz-adv-x="768" d="M384 704.1c105.881 0 192-86.139 192-192 0-105.859-86.141-192-192-192s-192 86.141-192 192c0 105.861 86.141 192 192 192zM384 384.1c70.58 0 128 57.42 128 128s-57.42 128-128 128-128-57.42-128-128 57.42-128 128-128zM735.26 351.34c-35.061-35.5-31.1-29.16-43.82-77.279-4.020-15.26-11.82-28.701-21.24-40.74l95.4-234.74c8.621-21.141-7.020-44.080-29.58-44.080-1.1 0 5.82-0.24-106.639 4.061l-72.5-76.561c-6.441-6.801-14.842-10-23.16-10-12.34 0-24.48 7.061-29.721 19.92l-104.881 258.080c-4.729 1.613-9.818 2.49-15.090 2.49-5.295 0-10.385-0.883-15.129-2.51l-104.9-258.060c-5.26-12.859-17.381-19.92-29.721-19.92-8.318 0-16.719 3.199-23.16 10l-72.5 76.58c-112.459-4.301-105.539-4.061-106.639-4.061-22.561 0-38.201 22.941-29.58 44.080l95.42 234.76c-9.42 12.041-17.221 25.48-21.24 40.76-12.68 47.801-8.66 41.74-43.82 77.182-28.119 28.66-39.199 70.68-28.939 109.719 12.779 48.541 12.779 41.041 0 89.381-10.26 39.061 0.799 81.1 28.92 109.74 35.061 35.5 31.1 29.16 43.82 77.24 10.32 39.219 40.76 70.119 79.5 80.639 47.020 12.84 40.84 9.041 75.439 44.381 28.439 28.9 70.5 40.32 109 29.699 46.74-12.82 39.939-13.020 86.939 0 38.82 10.52 80.621-0.799 109.061-29.639 34.26-35.281 28.9-31.801 75.5-44.441 38.699-10.52 69.141-41.42 79.439-80.68 12.68-47.801 8.66-41.74 43.82-77.18 28.121-28.66 39.201-70.68 28.939-109.721-12.779-48.479-12.779-40.979 0-89.379 10.24-39.061-0.818-81.1-28.939-109.721zM223.44-37.9l67.68 166.48c-26.34 1.859-52.039 12.721-71.92 33-22.26 22.619-19.439 20.1-63.18 31.82-1.619 0.439-2.98 1.42-4.559 1.939l-71.102-174.959c65.92 2.539 48.221 1.859 84.82 3.26 25.141-26.561 13.080-13.82 58.26-61.541zM687.66 20.4l-71.1 174.939c-1.58-0.5-2.941-1.48-4.561-1.92-43.52-11.439-40.359-8.6-63.18-31.82-19.92-20.279-45.621-30.879-72.041-32.699l67.801-166.801c45.18 47.721 33.141 35 58.26 61.541 36.561-1.4 19-0.721 84.82-3.24zM629.56 290.38c16.18 61.699 15.24 60.398 60.059 105.818 12.361 12.602 17.24 31.221 12.682 48.602-16.32 60.818-16.381 60.859 0 121.898 4.58 17.381-0.301 36-12.682 48.621-45 45.359-43.939 44.48-60.059 105.74-4.5 17.18-17.701 30.68-34.381 35.219-60.58 16.441-59.74 15.58-104.32 61.32-12.24 12.361-30.24 17.281-46.619 12.74-60.859-16.801-59.641-16.76-120.561 0-18.92 5.1-36.16-2.199-46.561-12.82-44.898-45.639-42.68-44.42-104.26-61.24-16.76-4.52-29.939-18.020-34.439-35.18-16.18-61.699-15.221-60.42-60.061-105.82-12.359-12.6-17.24-31.219-12.68-48.6 16.4-60.939 16.301-60.959 0-121.9-4.58-17.379 0.301-36 12.68-48.619 45-45.359 43.941-44.48 60.061-105.74 4.5-17.18 17.68-30.68 34.439-35.24 47.701-12.82 57.18-13.359 91.941-48.719 16-16.281 40.5-19.102 59.5-7.041 36.26 22.939 83.119 22.92 119.379 0.041 19.121-12.262 43.5-9.262 59.5 6.959 35.16 35.84 44.701 36.24 91.939 48.74 16.762 4.561 29.941 18.061 34.441 35.221z" />
<glyph unicode="&#xf61c;" glyph-name="ruler-triangle" d="M1003.3-8.16c44.219-44.24 12.898-119.84-49.641-119.84h-883.46c-38.779 0-70.199 31.42-70.199 70.199v883.46c0 42.32 34.619 70.34 70.699 70.34 17.24 0 34.82-6.4 49.121-20.699zM959.38-60.18c1.6 3.82-0.182 5.6-1.281 6.82l-147.58 147.58-33.939-33.941c-3.141-3.119-7.221-4.68-11.32-4.68s-8.199 1.561-11.32 4.68l-22.619 22.621c-6.24 6.24-6.24 16.379 0 22.619l33.939 33.941-90.5 90.5-33.939-33.941c-3.141-3.119-7.221-4.68-11.32-4.68s-8.199 1.561-11.32 4.68l-22.619 22.621c-6.24 6.24-6.24 16.379 0 22.619l33.939 33.939-90.5 90.5-33.939-33.939c-3.121-3.119-7.221-4.68-11.32-4.68-0.010 0-0.021-0.002-0.031-0.002-4.408 0-8.4 1.789-11.289 4.682l-22.619 22.621c-6.24 6.238-6.24 16.379 0 22.619l33.939 33.939-90.52 90.521-33.941-33.941c-3.119-3.119-7.219-4.68-11.318-4.68-0.012 0-0.021-0.002-0.033-0.002-4.406 0-8.398 1.789-11.287 4.682l-22.621 22.621c-6.24 6.24-6.24 16.379 0 22.619l33.941 33.939-90.521 90.521-33.939-33.941c-3.141-3.119-7.221-4.68-11.32-4.68-0.010 0-0.021-0.002-0.031-0.002-4.406 0-8.398 1.791-11.289 4.682l-22.639 22.621c-6.24 6.24-6.24 16.379 0 22.619l33.939 33.941-147.58 147.578c-1.801 1.801-2.9 1.961-3.859 1.961-0.301 0-6.721-0.080-6.721-6.34v-883.46c0-3.42 2.779-6.199 6.199-6.199h883.46c1.641 0 4.141 0 5.721 3.82zM246.62 438.64l320-319.98c5.787-5.807 9.346-13.84 9.346-22.676 0-4.318-0.854-8.441-2.404-12.205-4.941-11.979-16.621-19.76-29.561-19.76h-320c-17.68 0-32 14.32-32 32v320c0 13.328 8.145 24.752 19.74 29.561 11.879 4.959 25.76 2.18 34.879-6.939zM256 128.020l210.74-0.020-210.74 210.76v-210.74z" />
</font>
</defs>
</svg>
